<svg width="377" height="462" viewBox="0 0 377 462" fill="none" xmlns="http://www.w3.org/2000/svg">
<path d="M546 460.5H478.5C503 460.5 431.5 153.5 358.5 127.5C300.1 106.7 226.833 5.8333 197.5 -42H78C111 8.5 260 171 303.5 199C338.3 221.4 394 382.667 417.5 460.5H345C324.667 392.333 272.2 249.4 225 223C177.8 196.6 75 65.3333 29.5 3C29.5 25.5 29.5 73.3 29.5 84.5C29.5 98.5 138.5 249 178.5 283.5C210.5 311.1 255.5 413 274 460.5H197.5C203.1 435.7 73.8333 228.167 8.5 127.5L3 287L546 460.5ZM546 460.5C547.5 376.667 532.9 192.7 462.5 127.5C374.5 46 303.5 5 303.5 -42H417.5C432.667 -14.3333 471.3 43.1 504.5 51.5C537.7 59.9 558.667 105.667 565 127.5L546 460.5ZM3 287C44.6667 327.667 129.2 419.3 134 460.5H48.5L3 287Z" stroke="#95CDDC" stroke-opacity="0.7" stroke-width="3"/>
</svg>
